<svg id="Layer_1" data-name="Layer 1" xmlns="http://www.w3.org/2000/svg" viewBox="0 0 500 500" width="500" height="500" class="illustration"><title>7. Sketch book</title><polygon points="236.13 210.4 177.74 347.89 216.03 437.99 134.56 437.99 134.56 334.26 192.62 259.37 236.13 210.4" fill="#3fe2fd"></polygon><path d="M483.44,110.46a7,7,0,0,0,0-14H447.17V58.8a7,7,0,0,0-7-7H127.56a7,7,0,0,0-7,7v209L32.24,356.35c-.17.18-.34.36-.49.55L17.11,370.29a23.24,23.24,0,0,0-1.46,32.8L21.08,409a23.24,23.24,0,0,0,32.79,1.46L67.74,397.8a6.89,6.89,0,0,0,1.51-1.09l51.31-49.06V441.2a7,7,0,0,0,7,7H440.17a7,7,0,0,0,7-7V372.83h36.27a7,7,0,0,0,0-14H447.17V307.24h36.27a7,7,0,1,0,0-14H447.17V241.65h36.27a7,7,0,0,0,0-14H447.17V176.06h36.27a7,7,0,0,0,0-14H447.17v-51.6Zm-452,289.12L26,393.64a9.23,9.23,0,0,1,.58-13L39.29,369l17.87,19.53L44.42,400.16A9.21,9.21,0,0,1,31.41,399.58Zm17.84-40.45,121.43-121.7,21.94,21.94L67.47,379ZM182.53,229.48l34.22-10.65-14.28,30.59Zm250.64-67.42h-22.3a7,7,0,0,0,0,14h22.3v51.59h-22.3a7,7,0,0,0,0,14h22.3v51.59h-22.3a7,7,0,0,0,0,14h22.3v51.59h-22.3a7,7,0,0,0,0,14h22.3V434.2H134.56V334.26l70.67-67.58a6.91,6.91,0,0,0,4.5-4.3l2.91-2.78a7.11,7.11,0,0,0,1.51-2.1l22-47.11a7,7,0,0,0-8.42-9.64L171,218.39a7.07,7.07,0,0,0-2.87,1.74l-33.6,33.68V65.8H433.17V96.46h-22.3a7,7,0,0,0,0,14h22.3Z" fill="#251ac7"></path><path d="M342.72,124.5c-20.26-12-41.64-17-58.65-13.69-13.81,2.7-37.13,13.51-38.16,55.51-.15,6.05-.09,12.06,0,17.88.24,23.4.47,45.5-13.24,64.69-7.13,10-13.55,20.9-12.36,33.29a26,26,0,0,0,13.9,20.08,21.5,21.5,0,0,0,6.26,2.1c-.65,2.08-1.44,4.2-2.25,6.37-1,2.66-2,5.41-2.86,8.27-3.81,12.84-1.73,24.6,5.58,31.46,9.28,8.72,24,8.18,40.34-1.49a173,173,0,0,0,36.87-29.23c6.69-7,16.06-17.86,20.14-31.64,3.43-11.58,2.32-23.58-2.78-32.94a65.35,65.35,0,0,0,21.28-32.36c1-3.52,2.17-8.84.85-14.27-1.52-6.28-5.93-11.22-12.42-13.91a28.06,28.06,0,0,0-24.57,1.77c-10.78,6.59-16.13,18.32-20.3,30a7,7,0,0,0,13.18,4.7c3.09-8.64,7-18.24,14.42-22.76a13.93,13.93,0,0,1,11.91-.8,6.57,6.57,0,0,1,4.17,4.28c.54,2.23-.15,5.15-.71,7.16a51.09,51.09,0,0,1-21.22,28.66,7,7,0,0,0-1.45,10.52c5.42,6.12,7.08,16.31,4.22,26-2.45,8.26-7.79,16.5-16.83,25.92a159,159,0,0,1-33.88,26.87c-8.07,4.77-18.51,8.15-23.64,3.33-4-3.71-3.49-11.35-1.74-17.26.72-2.41,1.62-4.83,2.57-7.39,2.22-6,4.52-12.18,4.81-19.18a7,7,0,0,0-10.52-6.34c-1.39.81-3.09.72-5-.28a12.23,12.23,0,0,1-6.36-9c-.78-8.19,4.66-16.58,9.82-23.81,16.37-22.91,16.1-48.36,15.85-73-.06-5.69-.12-11.58,0-17.38.61-24.58,9.64-38.75,26.86-42.13,28.58-5.6,72.86,20.67,86.15,51.1C384,201.13,381.29,228,377,246c-6.08,25.67-18.92,49.71-29.42,67.79l-1.12,1.93c-8.13,13.95-17.33,29.76-17.39,47.49a42.49,42.49,0,0,0,14.31,31.51A30,30,0,0,0,363,402.42a28.26,28.26,0,0,0,4.09-.31,7,7,0,0,0-2.1-13.84c-5.39.81-9.75-1.8-12.45-4.13a28.56,28.56,0,0,1-9.46-20.88c0-14,7.89-27.45,15.48-40.48l1.13-1.94c11-18.92,24.44-44.15,30.94-71.61,4.76-20.1,7.77-50.16-4.91-79.19C378.25,152.89,362.57,136.29,342.72,124.5Z" fill="#251ac7"></path></svg>