<svg xmlns="http://www.w3.org/2000/svg" viewBox="0 0 500 500" width="500" height="500" class="illustration"><title>28. Calendar</title><g id="Layer_2" data-name="Layer 2"><polygon points="373.88 399.13 440.32 399.13 447.64 386.75 412.17 152.49 373.88 399.13" fill="#3fe2fd"></polygon></g><g id="Layer_1" data-name="Layer 1"><path d="M318.5,112.56a24.57,24.57,0,0,0-24,19.56h48A24.58,24.58,0,0,0,318.5,112.56Z" fill="none"></path><path d="M237.79,112.56a24.58,24.58,0,0,0-24,19.56h48.06A24.59,24.59,0,0,0,237.79,112.56Z" fill="none"></path><path d="M157.08,112.56a24.57,24.57,0,0,0-24,19.56h48A24.57,24.57,0,0,0,157.08,112.56Z" fill="none"></path><path d="M350.6,409h78.48a25.64,25.64,0,0,0,19.63-8.64,26,26,0,0,0,6-20.87L425.63,159.79c-2.06-15.52-15.84-27.67-31.39-27.67H356.71a38.53,38.53,0,0,0-76.41,0H276a38.52,38.52,0,0,0-76.4,0h-4.31a38.53,38.53,0,0,0-76.41,0H105.45c-15.54,0-29.33,12.15-31.38,27.67L69.66,193h0L45,379.44a26,26,0,0,0,6,20.87A25.65,25.65,0,0,0,70.61,409h280Zm-280-14a11.83,11.83,0,0,1-9.1-3.87,12.17,12.17,0,0,1-2.68-9.8L82.73,201h309L368.11,379.44C367,387.85,359,395,350.6,395h-280Zm14-208,3.35-25.33c1.12-8.41,9.14-15.51,17.51-15.51h14.17a38.59,38.59,0,0,0,37.46,29.51,7,7,0,1,0,0-14,24.55,24.55,0,0,1-22.81-15.51h66.06a38.6,38.6,0,0,0,37.46,29.51,7,7,0,0,0,0-14A24.57,24.57,0,0,1,215,146.12h66.07a38.58,38.58,0,0,0,37.45,29.51,7,7,0,0,0,0-14,24.55,24.55,0,0,1-22.8-15.51h89.74a11.85,11.85,0,0,1,9.1,3.87,12.19,12.19,0,0,1,2.68,9.8L393.62,187ZM438.18,391.08a11.82,11.82,0,0,1-9.1,3.87H376.66A31.37,31.37,0,0,0,382,381.28L411.1,161.63c.1-.71.16-1.42.2-2.12a16.63,16.63,0,0,1,.45,2.12l29.12,219.65A12.18,12.18,0,0,1,438.18,391.08ZM318.5,112.56a24.58,24.58,0,0,1,24,19.56h-48A24.57,24.57,0,0,1,318.5,112.56Zm-80.71,0a24.59,24.59,0,0,1,24,19.56H213.76A24.58,24.58,0,0,1,237.79,112.56Zm-80.71,0a24.57,24.57,0,0,1,24,19.56h-48A24.57,24.57,0,0,1,157.08,112.56Z" fill="#251ac7"></path><path d="M99.68,260a7,7,0,0,0,5.27,2.38h33.47a7,7,0,0,0,6.94-6.08l4-30.18a7,7,0,0,0-6.94-7.92H109a7,7,0,0,0-6.94,6.08l-4,30.18A7,7,0,0,0,99.68,260Zm15.4-27.8h19.35l-2.14,16.18H112.94Z" fill="#251ac7"></path><path d="M177.18,262.39h33.47a7,7,0,0,0,6.94-6.08l4-30.18a7,7,0,0,0-6.93-7.92H181.18a7,7,0,0,0-6.94,6.08l-4,30.18a7,7,0,0,0,6.94,7.92Zm10.13-30.18h19.36l-2.15,16.18H185.17Z" fill="#251ac7"></path><path d="M249.41,262.39h33.48a7,7,0,0,0,6.94-6.08l4-30.18a7,7,0,0,0-6.94-7.92H253.41a7,7,0,0,0-6.94,6.08l-4,30.18a7,7,0,0,0,6.94,7.92Zm10.14-30.18H278.9l-2.15,16.18H257.4Z" fill="#251ac7"></path><path d="M321.65,262.39h33.47a7,7,0,0,0,6.94-6.08l4-30.18a7,7,0,0,0-6.94-7.92H325.65a7,7,0,0,0-6.94,6.08l-4,30.18a7,7,0,0,0,6.94,7.92Zm10.13-30.18h19.35L349,248.39H329.64Z" fill="#251ac7"></path><path d="M314.06,319.62h33.48a7,7,0,0,0,6.93-6.08l4-30.19a7,7,0,0,0-6.94-7.92H318.06a7,7,0,0,0-6.94,6.08l-4,30.19a7,7,0,0,0,6.94,7.92Zm10.14-30.19h19.35l-2.15,16.19H322.05Z" fill="#251ac7"></path><path d="M97.31,320h33.47a7,7,0,0,0,6.94-6.08l4-30.19a7,7,0,0,0-6.93-7.92H101.31a7,7,0,0,0-6.94,6.08l-4,30.19A7,7,0,0,0,97.31,320Zm10.13-30.19H126.8L124.65,306H105.3Z" fill="#251ac7"></path><path d="M169.54,320H203a7,7,0,0,0,6.94-6.08l4-30.19a7,7,0,0,0-6.94-7.92H173.54a7,7,0,0,0-6.94,6.08l-4,30.19a7,7,0,0,0,6.94,7.92Zm10.14-30.19H199L196.88,306H177.53Z" fill="#251ac7"></path><path d="M241.78,320h33.47a7,7,0,0,0,6.94-6.08l4-30.19a7,7,0,0,0-6.94-7.92H245.78a7,7,0,0,0-6.94,6.08l-4,30.19a7,7,0,0,0,6.94,7.92Zm10.13-30.19h19.35L269.12,306H249.77Z" fill="#251ac7"></path><path d="M130.09,371.54l4-30.18a7,7,0,0,0-6.94-7.92H93.67a7,7,0,0,0-6.94,6.08l-4,30.18a7,7,0,0,0,6.94,7.92h33.48A7,7,0,0,0,130.09,371.54ZM117,363.62H97.66l2.15-16.18h19.35Z" fill="#251ac7"></path><path d="M161.91,377.62h33.47a7,7,0,0,0,6.94-6.08l4-30.18a7,7,0,0,0-6.94-7.92H165.91a7,7,0,0,0-6.94,6.08l-4,30.18a7,7,0,0,0,6.94,7.92ZM172,347.44h19.35l-2.14,16.18H169.9Z" fill="#251ac7"></path><path d="M234.14,377.62h33.47a7,7,0,0,0,6.94-6.08l4-30.18a7,7,0,0,0-6.94-7.92H238.14a7,7,0,0,0-6.94,6.08l-4,30.18a7,7,0,0,0,6.94,7.92Zm10.13-30.18h19.36l-2.15,16.18H242.13Z" fill="#251ac7"></path><path d="M304.16,377.62h33.47a7,7,0,0,0,6.94-6.08l4-30.18a7,7,0,0,0-6.94-7.92H308.16a7,7,0,0,0-6.94,6.08l-4,30.18a7,7,0,0,0,6.94,7.92Zm10.13-30.18h19.35l-2.14,16.18H312.14Z" fill="#251ac7"></path></g></svg>