<svg xmlns="http://www.w3.org/2000/svg" width="500" height="500" class="illustration" viewBox="0 0 500 500"><title>25. Sticky Notes</title><g id="Layer_1" data-name="Layer 1"><polygon fill="#3fe2fd" points="365.43 172.2 365.43 363.09 304.61 408.71 152.57 408.71 152.57 378.3 289.41 378.3 340.09 331 340.09 177.26 365.43 172.2"/></g><g id="Layer_3" data-name="Layer 3"><path fill="none" d="M352.16,332.69a7,7,0,0,1-2.49,5.35l-54.06,45.61h0a6.08,6.08,0,0,1-.92.65l-.11.07a7.4,7.4,0,0,1-1,.46l-.14.05a7.18,7.18,0,0,1-1.06.29l-.14,0a7.08,7.08,0,0,1-1.13.1H156.19v19.79H373.63v-231H352.16Z"/><path fill="none" d="M279,114.76a7,7,0,1,1,14,0V128h11.11a7,7,0,0,1-.9-3.42v-9a14.13,14.13,0,0,0-14.11-14.11H264.91A14.13,14.13,0,0,0,250.8,115.6V128H279Z"/><path fill="#251ac7" d="M105.27,385.3h36.92v26.79a7,7,0,0,0,7,7H380.63a7,7,0,0,0,7-7v-245a7,7,0,0,0-7-7H352.16V135a7,7,0,0,0-7-7H316.35a6.94,6.94,0,0,0,.89-3.42v-9a28.14,28.14,0,0,0-28.11-28.11H264.91A28.14,28.14,0,0,0,236.8,115.6V128H105.27a7,7,0,0,0-7,7V378.3A7,7,0,0,0,105.27,385.3Zm7-243.27H236.8v31A28.12,28.12,0,1,0,293,173V142h45.13V322.31H291.1a7,7,0,0,0-7,7v42H112.27ZM298.1,363.23V336.31H330ZM279,142v31a14.12,14.12,0,1,1-28.23,0V142Zm94.6,32.1v231H156.19V385.3H291.1a7.08,7.08,0,0,0,1.13-.1l.14,0a7.18,7.18,0,0,0,1.06-.29l.14-.05a7.4,7.4,0,0,0,1-.46l.11-.07a6.08,6.08,0,0,0,.92-.65h0L349.67,338a7,7,0,0,0,2.49-5.35V174.13ZM250.8,115.6a14.13,14.13,0,0,1,14.11-14.11h24.22a14.13,14.13,0,0,1,14.11,14.11v9a7,7,0,0,0,.9,3.42H293V114.76a7,7,0,1,0-14,0V128H250.8Z"/><path fill="#251ac7" d="M170.59,238.32H281a7,7,0,0,0,0-14H170.59a7,7,0,1,0,0,14Z"/><path fill="#251ac7" d="M170.59,270.42h63.07a7,7,0,1,0,0-14H170.59a7,7,0,1,0,0,14Z"/><path fill="#251ac7" d="M281.52,256.42H256.18a7,7,0,0,0,0,14h25.34a7,7,0,0,0,0-14Z"/><path fill="#251ac7" d="M288,298.34a7,7,0,0,0-7-7H170.59a7,7,0,1,0,0,14H281A7,7,0,0,0,288,298.34Z"/></g></svg>